# xmcd
#
# Track frame offsets: 
#        300
#        21337
#        34737
#        50875
#        67275
#        80637
#        95912
#        112750
#        127275
#        136062
#        150675
#        161200
#        172775
#
# Disc length: 2489 seconds
#
# Revision: 4
# Processed by: cddbd v1.5.2PL0 Copyright (c) Steve Scherf et al.
# Submitted via: ExactAudioCopy v0.99pb1
#
DISCID=bc09b50d
DTITLE=Браво - Песни разных лет
DYEAR=1995
DGENRE=Rock and Roll
TTITLE0=Король "Оранжевое лето"
TTITLE1=Черный кот
TTITLE2=Марсианка
TTITLE3=Зачем родился ты
TTITLE4=Добрый вечер, Москва
TTITLE5=Просто так
TTITLE6=Сны
TTITLE7=Мне грустно и легко
TTITLE8=Джамайка
TTITLE9=Красный свет
TTITLE10=Наташа
TTITLE11=Король курорта
TTITLE12=По волнам
EXTD=
EXTT0=
EXTT1=
EXTT2=
EXTT3=
EXTT4=
EXTT5=
EXTT6=
EXTT7=
EXTT8=
EXTT9=
EXTT10=
EXTT11=
EXTT12=
PLAYORDER=
